<svg width="500" height="500" viewBox="0 0 500 500" fill="none" xmlns="http://www.w3.org/2000/svg">
<rect width="500" height="500" rx="41" fill="white"/>
<path d="M187.392 195.661C186.398 185.635 182.131 177.846 174.59 172.295C167.05 166.743 156.817 163.967 143.891 163.967C135.108 163.967 127.692 165.21 121.643 167.696C115.594 170.099 110.954 173.455 107.722 177.763C104.574 182.072 102.999 186.961 102.999 192.43C102.834 196.987 103.787 200.964 105.858 204.362C108.012 207.759 110.954 210.7 114.683 213.186C118.411 215.589 122.72 217.702 127.609 219.525C132.497 221.265 137.718 222.756 143.269 223.999L166.139 229.468C177.242 231.954 187.434 235.268 196.714 239.411C205.994 243.554 214.032 248.65 220.826 254.699C227.621 260.748 232.882 267.874 236.611 276.077C240.422 284.28 242.37 293.684 242.453 304.29C242.37 319.868 238.392 333.374 230.521 344.809C222.732 356.161 211.463 364.985 196.714 371.283C182.048 377.497 164.357 380.604 143.642 380.604C123.093 380.604 105.195 377.456 89.949 371.158C74.7856 364.861 62.9366 355.539 54.4021 343.193C45.9504 330.764 41.5174 315.394 41.1031 297.082H93.1805C93.7605 305.616 96.2049 312.742 100.514 318.46C104.905 324.094 110.747 328.361 118.038 331.261C125.413 334.079 133.74 335.487 143.021 335.487C152.135 335.487 160.048 334.161 166.76 331.51C173.555 328.858 178.816 325.171 182.545 320.448C186.274 315.725 188.138 310.298 188.138 304.166C188.138 298.449 186.439 293.643 183.042 289.749C179.728 285.854 174.839 282.54 168.376 279.805C161.996 277.071 154.165 274.585 144.885 272.348L117.168 265.388C95.7077 260.168 78.7629 252.006 66.3339 240.903C53.9049 229.799 47.7319 214.843 47.8147 196.034C47.7319 180.622 51.8334 167.157 60.1194 155.64C68.4883 144.122 79.9643 135.132 94.5477 128.669C109.131 122.206 125.703 118.974 144.264 118.974C163.156 118.974 179.645 122.206 193.731 128.669C207.9 135.132 218.92 144.122 226.792 155.64C234.664 167.157 238.724 180.498 238.972 195.661H187.392ZM251.457 166.826V122.455H460.513V166.826H382.583V377H329.387V166.826H251.457Z" fill="#4263EB"/>
</svg>
